<?xml version="1.0" standalone="yes"?>

<svg version="1.1" viewBox="0.0 0.0 960.0 720.0" fill="none" stroke="none" stroke-linecap="square" stroke-miterlimit="10" xmlns="http://www.w3.org/2000/svg" xmlns:xlink="http://www.w3.org/1999/xlink"><clipPath id="p.0"><path d="m0 0l960.0 0l0 720.0l-960.0 0l0 -720.0z" clip-rule="nonzero"></path></clipPath><g clip-path="url(#p.0)"><path fill="#000000" fill-opacity="0.0" d="m0 0l960.0 0l0 720.0l-960.0 0z" fill-rule="evenodd"></path><path fill="#000000" fill-opacity="0.0" d="m35.572178 48.377953l902.1417 0l0 493.76376l-902.1417 0z" fill-rule="evenodd"></path><path fill="#ff720e" d="m107.41593 327.95236q-5.375 14.984375 -20.609375 14.984375q-15.609375 0 -25.718754 -11.78125q-10.5 -12.15625 -10.5 -31.109375q0 -19.96875 11.265625 -32.0q10.875004 -11.640625 28.031254 -11.640625q11.640625 0 19.515625 5.0625q7.875 5.046875 12.359375 15.921875l-15.484375 3.59375q-6.796875 -10.890625 -17.15625 -10.890625q-9.46875 0 -15.75 8.078125q-6.53125 8.1875 -6.53125 21.875q0 12.9375 5.890625 21.0q5.765625 7.9375 15.359375 7.9375q8.203125 0 13.4375 -5.25q5.390625 -5.375 5.390625 -14.71875l0 -0.515625l-18.703125 -0.390625l0 -9.71875l33.15625 0l0 42.75l-12.28125 0l-1.671875 -13.1875zm79.10914 -41.59375q3.203125 4.09375 4.796875 9.46875q1.609375 5.375 1.609375 9.859375q0 4.484375 -0.515625 8.0625l-40.203125 0q0.265625 7.546875 3.71875 12.28125q3.453125 4.734375 10.5 4.734375q9.34375 0 11.140625 -8.1875l15.21875 0q-1.53125 9.34375 -8.578125 14.71875q-7.28125 5.640625 -17.78125 5.640625q-12.296875 0 -20.609375 -8.96875q-8.578125 -9.34375 -8.578125 -23.9375q0 -14.96875 8.578125 -24.0625q8.1875 -8.703125 20.609375 -8.703125q12.921875 0 20.09375 9.09375zm-19.96875 2.9375q-6.40625 0 -9.984375 4.171875q-3.578125 4.15625 -4.21875 10.6875l26.484375 0q0 -10.125 -6.390625 -13.578125q-2.4375 -1.28125 -5.890625 -1.28125zm79.48064 50.3125q-8.4375 3.328125 -13.3125 3.328125q-4.859375 0 -8.515625 -1.15625q-3.640625 -1.15625 -6.453125 -3.453125q-5.890625 -5.25 -5.890625 -14.46875l0 -34.8125l-8.703125 0l0 -10.109375l8.703125 0l0 -16.390625l15.109375 0l0 16.390625l16.890625 0l0 10.109375l-16.890625 0l0 34.296875q0 7.6875 7.296875 7.6875q3.703125 0 9.59375 -2.046875l2.171875 10.625zm79.75653 -83.203125q8.3125 0 15.21875 2.75q6.921875 2.75 11.90625 8.125q10.5 11.265625 10.5 32.265625q0 21.109375 -10.5 32.640625q-9.984375 10.75 -27.265625 10.75q-17.140625 0 -27.125 -11.015625q-10.5 -11.390625 -10.5 -32.375q0 -21.25 10.5 -32.515625q9.859375 -10.625 27.265625 -10.625zm22.015625 43.328125q0 -14.28125 -5.953125 -22.015625q-5.953125 -7.75 -16.078125 -7.75q-10.109375 0 -16.125 7.75q-6.015625 7.734375 -6.015625 22.015625q0 14.265625 6.015625 21.890625q6.015625 7.609375 16.125 7.609375q10.125 0 16.078125 -7.609375q5.953125 -7.625 5.953125 -21.890625zm47.36151 -12.359375q5.875 -10.109375 17.90625 -10.109375q11.53125 0 19.71875 8.703125q8.703125 9.21875 8.703125 24.0625q0 14.984375 -8.828125 24.203125q-8.1875 8.703125 -19.59375 8.703125q-11.390625 0 -16.625 -6.78125l0 35.328125l-15.109375 0l0 -92.546875l12.40625 0l1.421875 8.4375zm15.21875 41.859375q2.6875 0 5.5625 -1.140625q2.890625 -1.15625 5.203125 -3.59375q5.109375 -5.375 5.109375 -14.390625q0 -9.03125 -4.421875 -14.140625q-4.40625 -5.125 -10.75 -5.125q-6.328125 0 -10.359375 3.640625q-4.03125 3.640625 -4.28125 10.4375l0 11.125q0 6.015625 4.21875 9.734375q3.96875 3.453125 9.71875 3.453125zm84.09564 10.375q-8.4375 3.328125 -13.3125 3.328125q-4.859375 0 -8.515625 -1.15625q-3.640625 -1.15625 -6.453125 -3.453125q-5.890625 -5.25 -5.890625 -14.46875l0 -34.8125l-8.703125 0l0 -10.109375l8.703125 0l0 -16.390625l15.109375 0l0 16.390625l16.890625 0l0 10.109375l-16.890625 0l0 34.296875q0 7.6875 7.296875 7.6875q3.703125 0 9.59375 -2.046875l2.171875 10.625zm16.778748 -60.8125l15.0937805 0l0 62.34375l-15.0937805 0l0 -62.34375zm-1.796875 -19.953125q0 -4.109375 2.421875 -6.46875q2.4375305 -2.375 6.9219055 -2.375q4.359375 0 6.84375 2.375q2.5 2.359375 2.5 6.46875q0 4.09375 -2.5 6.46875q-2.484375 2.359375 -6.84375 2.359375q-4.484375 0 -6.9219055 -2.359375q-2.421875 -2.375 -2.421875 -6.46875zm97.79654 31.859375q6.015625 -13.4375 21.109375 -13.4375q11.140625 0 17.28125 7.5625q5.890625 7.15625 5.890625 19.953125l0 36.359375l-15.234375 0l0 -36.359375q0 -6.90625 -3.328125 -10.421875q-3.328125 -3.515625 -9.34375 -3.515625q-6.015625 0 -9.859375 5.25q-3.828125 5.234375 -4.09375 15.859375l0 29.1875l-15.09375 0l0 -36.359375q0 -6.90625 -3.328125 -10.421875q-3.328125 -3.515625 -9.34375 -3.515625q-6.015625 0 -10.3125 5.375q-4.28125 5.375 -4.53125 16.125l0 28.796875l-15.109375 0l0 -62.203125l13.1875 0l1.65625 10.75q6.140625 -12.421875 19.71875 -12.421875q7.796875 0 12.984375 3.59375q5.1875 3.578125 7.75 9.84375zm67.45636 -11.90625l15.09375 0l0 62.34375l-15.09375 0l0 -62.34375zm-1.796875 -19.953125q0 -4.109375 2.421875 -6.46875q2.4375 -2.375 6.921875 -2.375q4.359375 0 6.84375 2.375q2.5 2.359375 2.5 6.46875q0 4.09375 -2.5 6.46875q-2.484375 2.359375 -6.84375 2.359375q-4.484375 0 -6.921875 -2.359375q-2.421875 -2.375 -2.421875 -6.46875zm50.95276 63.359375q0.25 8.828125 12.921875 8.828125q4.859375 0 8.0 -2.109375q3.140625 -2.125 3.140625 -4.9375q0 -2.8125 -1.921875 -4.34375q-1.921875 -1.546875 -6.015625 -2.8125l-13.578125 -4.875q-15.09375 -5.25 -15.09375 -17.15625q0 -7.921875 7.09375 -12.71875q7.109375 -4.8125 19.078125 -4.8125q11.96875 0 18.421875 5.25q6.46875 5.25 6.734375 13.1875l-14.21875 0q-0.25 -3.078125 -2.9375 -4.859375q-2.6875 -1.796875 -7.6875 -1.796875q-4.984375 0 -7.734375 1.984375q-2.75 1.984375 -2.75 4.546875q0 4.46875 7.546875 6.65625l14.71875 5.5q7.296875 2.4375 11.203125 6.21875q3.90625 3.765625 3.90625 9.78125q0 7.671875 -7.296875 13.3125q-7.546875 5.890625 -19.96875 5.890625q-12.421875 0 -19.96875 -5.4375q-7.546875 -5.453125 -7.6875 -15.296875l14.09375 0zm102.39349 -35.84375q3.203125 4.09375 4.796875 9.46875q1.609375 5.375 1.609375 9.859375q0 4.484375 -0.515625 8.0625l-40.203125 0q0.265625 7.546875 3.71875 12.28125q3.453125 4.734375 10.5 4.734375q9.34375 0 11.140625 -8.1875l15.21875 0q-1.53125 9.34375 -8.578125 14.71875q-7.28125 5.640625 -17.78125 5.640625q-12.296875 0 -20.609375 -8.96875q-8.578125 -9.34375 -8.578125 -23.9375q0 -14.96875 8.578125 -24.0625q8.1875 -8.703125 20.609375 -8.703125q12.921875 0 20.09375 9.09375zm-19.96875 2.9375q-6.40625 0 -9.984375 4.171875q-3.578125 4.15625 -4.21875 10.6875l26.484375 0q0 -10.125 -6.390625 -13.578125q-2.4375 -1.28125 -5.890625 -1.28125z" fill-rule="nonzero"></path><path fill="#000000" fill-opacity="0.0" d="m1118.4199 159.36745l770.64575 0l0 89.921265l-770.64575 0z" fill-rule="evenodd"></path></g></svg>

